<svg width="222" height="44" viewBox="0 0 222 44" fill="none" xmlns="http://www.w3.org/2000/svg">
<path d="M19.31 18.96C18.85 15.4 16.8 13 13.55 13C10.3 13 8.25 15.36 7.62 18.96H19.31ZM0 21.29V21.18C0 13.2 5.56 6.63 13.53 6.63C22.67 6.63 26.86 13.87 26.86 21.81C26.86 22.44 26.82 23.16 26.75 23.9H7.7C8.16 27.19 11.06 29.57 14.38 29.38C16.9 29.41 19.31 28.36 21.01 26.5L25.46 30.51C22.79 33.94 18.63 35.88 14.29 35.72C6.07 35.72 0 29.83 0 21.28" fill="#1862F8"/>
<path d="M26.84 7.15991H35.04L41.17 25.8799L47.34 7.15991H55.41L44.65 35.3199H37.58L26.84 7.15991Z" fill="#1862F8"/>
<path d="M74.28 18.96C73.82 15.4 71.77 13 68.52 13C65.27 13 63.22 15.36 62.59 18.96H74.28ZM54.97 21.29V21.18C54.97 13.2 60.53 6.63 68.5 6.63C77.64 6.63 81.83 13.87 81.83 21.81C81.83 22.44 81.79 23.16 81.72 23.9H62.67C63.13 27.19 66.03 29.57 69.35 29.38C71.87 29.41 74.28 28.36 75.98 26.5L80.43 30.51C77.76 33.94 73.6 35.88 69.26 35.72C61.06 35.72 54.97 29.83 54.97 21.28" fill="#1862F8"/>
<path d="M85.54 7.16001H93.31V11.13C95.1 8.77002 97.39 6.64001 101.32 6.64001C107.19 6.64001 110.61 10.61 110.61 17.02V35.13H102.84V19.53C102.84 15.78 101.12 13.84 98.15 13.84C95.18 13.84 93.31 15.76 93.31 19.53V35.13H85.54V7.16001Z" fill="#1862F8"/>
<path d="M116.54 27.18V13.94H113.27V7.15H116.54V0H124.31V7.16H130.75V13.94H124.31V25.9C124.31 27.73 125.07 28.61 126.82 28.61C128.16 28.61 129.48 28.27 130.66 27.63V34C128.81 35.11 126.69 35.67 124.53 35.61C119.77 35.59 116.55 33.67 116.55 27.19" fill="#1862F8"/>
<path d="M157.17 21.7699V21.6599C157.17 15.8799 152.94 11.1199 147.37 11.1199C141.8 11.1199 137.71 15.8799 137.71 21.5499V21.6599C137.71 27.4399 141.9 32.1499 147.46 32.1499C153.18 32.1299 157.17 27.4399 157.17 21.7699ZM133.67 21.7699V21.6599C133.52 14.0599 139.56 7.76992 147.16 7.61992C154.76 7.46992 161.05 13.5099 161.2 21.1099C161.2 21.2599 161.2 21.4199 161.2 21.5699V21.6799C161.38 29.2799 155.37 35.5899 147.76 35.7699C140.15 35.9499 133.85 29.9399 133.67 22.3299C133.67 22.1399 133.67 21.9499 133.67 21.7599" fill="#1862F8"/>
<path d="M187.56 20.35V20.24C187.56 14.72 182.87 11.12 177.85 11.12C172.98 10.95 168.89 14.75 168.71 19.63C168.71 19.82 168.71 20.01 168.71 20.2V20.31C168.62 25.29 172.59 29.4 177.57 29.49C177.66 29.49 177.76 29.49 177.85 29.49C182.87 29.47 187.56 25.78 187.56 20.35ZM165.92 39.81L167.71 36.69C170.62 38.93 174.2 40.14 177.88 40.14C183.71 40.14 187.48 36.85 187.48 30.54V27.36C185.19 30.48 181.96 33.05 177.12 33.05C170.31 33.09 164.75 27.61 164.7 20.79C164.7 20.67 164.7 20.54 164.7 20.42V20.31C164.55 13.44 170.01 7.74003 176.88 7.60003C181.09 7.51003 185.06 9.55003 187.43 13.03V8.19003H191.36V30.47C191.36 34.64 190.14 37.82 187.98 40.02C185.62 42.42 182.11 43.62 177.92 43.62C173.62 43.62 169.43 42.3 165.92 39.82" fill="#1862F8"/>
<path d="M217.81 8.16002H222L210.92 36C208.67 41.59 206.12 43.61 202.13 43.61C200.18 43.63 198.25 43.16 196.52 42.26L197.85 39.08C199.12 39.77 200.55 40.11 202 40.06C204.36 40.06 205.84 38.82 207.41 35L195.41 8.15002H199.75L209.35 30.64L217.81 8.17002V8.16002Z" fill="#1862F8"/>
<path d="M153.98 19.24L145.8 27.6C145.49 27.93 145.05 28.11 144.6 28.1C144.15 28.1 143.72 27.92 143.4 27.6L140.11 24.22C139.43 23.54 139.43 22.44 140.11 21.75C140.75 21.09 141.81 21.07 142.48 21.72C142.49 21.73 142.5 21.74 142.51 21.75L144.6 23.89L151.58 16.76C152.22 16.1 153.28 16.08 153.95 16.73C153.96 16.74 153.97 16.75 153.98 16.76C154.63 17.46 154.63 18.55 153.98 19.25" fill="#1862F8"/>
</svg>
